<svg width="88" height="176" viewBox="0 0 88 176" fill="none" xmlns="http://www.w3.org/2000/svg">
<g clip-path="url(#clip0_4049_41)">
<path d="M44 176C44 176 0 67.7145 0 43.6254C0 19.5363 19.7041 0 44 0C68.2959 0 88 19.5363 88 43.6254C88 67.7145 44 176 44 176Z" fill="#AE0000"/>
<path d="M44 168.796C44 168.796 0 67.7145 0 43.6254C0 19.5363 19.7041 0 44 0C68.2959 0 88 19.5363 88 43.6254C88 67.7145 44 168.796 44 168.796Z" fill="#E50000"/>
<path d="M44 60.2803C36.0951 60.2803 29.7014 53.9411 29.7014 46.1035C29.7014 38.2659 36.0951 31.9267 44 31.9267C51.9049 31.9267 58.2985 38.2659 58.2985 46.1035C58.2985 53.9411 51.9049 60.2803 44 60.2803Z" fill="white"/>
</g>
<defs>
<clipPath id="clip0_4049_41">
<rect width="88" height="176" fill="white"/>
</clipPath>
</defs>
</svg>
