<svg width="41" height="23" viewBox="0 0 41 23" fill="none" xmlns="http://www.w3.org/2000/svg">
<path d="M26.767 3.78874L25.9492 4.32019L27.4488 6.51304L28.2666 5.9816L26.767 3.78874Z" fill="black"/>
<path d="M28.5408 6.38237L27.7231 6.91382L29.2227 9.10667L30.0404 8.57523L28.5408 6.38237Z" fill="black"/>
<path d="M27.9941 2.99366L27.1763 3.52496L30.4481 8.31109L31.2659 7.77978L27.9941 2.99366Z" fill="black"/>
<path d="M29.2213 2.1931L28.4036 2.72455L29.9032 4.9174L30.7209 4.38596L29.2213 2.1931Z" fill="black"/>
<path d="M30.9926 4.7885L30.1748 5.31995L31.6744 7.5128L32.4922 6.98136L30.9926 4.7885Z" fill="black"/>
<path d="M11.2255 13.8941L10.4078 14.4255L13.6804 19.2111L14.4982 18.6797L11.2255 13.8941Z" fill="black"/>
<path d="M9.99568 14.6937L9.17804 15.2253L10.678 17.4179L11.4957 16.8863L9.99568 14.6937Z" fill="black"/>
<path d="M11.7698 17.2786L10.9521 17.8101L12.4517 20.0029L13.2694 19.4715L11.7698 17.2786Z" fill="black"/>
<path d="M8.77376 15.488L7.95602 16.0194L11.2287 20.805L12.0464 20.2735L8.77376 15.488Z" fill="black"/>
<path d="M13.6827 3.79006L10.4101 8.57562L11.2278 9.10707L14.5005 4.3215L13.6827 3.79006Z" fill="black"/>
<path d="M12.4517 2.99275L9.17905 7.77832L9.99678 8.30977L13.2694 3.5242L12.4517 2.99275Z" fill="black"/>
<path d="M11.2233 2.19793L7.95322 6.98151L8.77104 7.51281L12.0411 2.72924L11.2233 2.19793Z" fill="black"/>
<path d="M27.4517 16.4884L25.9521 18.6812L26.7698 19.2127L28.2695 17.0198L27.4517 16.4884Z" fill="black"/>
<path d="M29.2229 13.8953L27.7233 16.0882L28.5411 16.6196L30.0407 14.4268L29.2229 13.8953Z" fill="black"/>
<path d="M28.677 17.2838L27.1774 19.4766L27.9951 20.0081L29.4947 17.8152L28.677 17.2838Z" fill="black"/>
<path d="M30.4476 14.6886L28.9476 16.8812L29.7652 17.4127L31.2652 15.2201L30.4476 14.6886Z" fill="black"/>
<path d="M29.9043 18.0775L28.4043 20.2701L29.222 20.8017L30.722 18.6091L29.9043 18.0775Z" fill="black"/>
<path d="M31.6761 15.4881L30.1765 17.6809L30.9942 18.2124L32.4938 16.0195L31.6761 15.4881Z" fill="black"/>
<mask id="mask0_4001_567" style="mask-type:luminance" maskUnits="userSpaceOnUse" x="0" y="0" width="41" height="23">
<path d="M40.4483 0H0V23H40.4483V0Z" fill="white"/>
</mask>
<g mask="url(#mask0_4001_567)">
<path d="M15.3164 8.31049C15.2945 8.3411 15.2725 8.37171 15.2536 8.40231C15.2756 8.37171 15.2945 8.3411 15.3164 8.31049Z" fill="#B50037"/>
<path d="M23.4959 6.71574C20.7862 4.95263 17.1219 5.6689 15.3165 8.3105C14.4122 9.62977 14.7796 11.4174 16.1329 12.2959C17.4893 13.1774 19.3199 12.8193 20.2242 11.5C21.1284 10.1777 22.959 9.82261 24.3123 10.7042C25.6688 11.5857 26.033 13.3703 25.1287 14.6926C26.9373 12.051 26.2025 8.47885 23.4928 6.71574" fill="#B50037"/>
<path d="M15.3165 8.31049C14.4122 9.62976 14.7795 11.4174 16.1328 12.2958C17.4893 13.1774 19.3198 12.8193 20.2241 11.5C21.1284 10.1777 22.959 9.8226 24.3123 10.7042C25.6687 11.5857 26.033 13.3702 25.1287 14.6926C23.3232 17.3342 19.6589 18.0504 16.9492 16.2873C14.2395 14.5242 13.5047 10.9551 15.3133 8.31355" fill="#1E3476"/>
</g>
</svg>
