<svg width="32" height="32" viewBox="0 0 32 32" fill="none" xmlns="http://www.w3.org/2000/svg">
<g clip-path="url(#clip0_4001_409)">
<rect width="32" height="32" rx="16" fill="#F4F4F4"/>
<g clip-path="url(#clip1_4001_409)">
<path d="M16 32C24.8366 32 32 24.8366 32 16C32 7.16344 24.8366 0 16 0C7.16344 0 0 7.16344 0 16C0 24.8366 7.16344 32 16 32Z" fill="#F4F4F4"/>
<path d="M16 22.9565C19.842 22.9565 22.9565 19.842 22.9565 16C22.9565 12.158 19.842 9.0435 16 9.0435C12.158 9.0435 9.0435 12.158 9.0435 16C9.0435 19.842 12.158 22.9565 16 22.9565Z" fill="#FC4343"/>
</g>
</g>
<defs>
<clipPath id="clip0_4001_409">
<rect width="32" height="32" rx="16" fill="white"/>
</clipPath>
<clipPath id="clip1_4001_409">
<rect width="32" height="32" fill="white"/>
</clipPath>
</defs>
</svg>
