<svg width="32" height="32" viewBox="0 0 32 32" fill="none" xmlns="http://www.w3.org/2000/svg">
<g clip-path="url(#clip0_4001_381)">
<rect width="32" height="32" rx="16" fill="#F4F4F4"/>
<g clip-path="url(#clip1_4001_381)">
<path d="M16 31.999C24.8366 31.999 32 24.8356 32 15.999C32 7.16247 24.8366 -0.000976562 16 -0.000976562C7.16344 -0.000976562 0 7.16247 0 15.999C0 24.8356 7.16344 31.999 16 31.999Z" fill="#F4F4F4"/>
<path d="M15.3044 15.999H32C32 14.5549 31.8075 13.1559 31.4488 11.8251H15.3044V15.999Z" fill="#FC4343"/>
<path d="M15.3044 7.6512H29.6516C28.6722 6.05295 27.4199 4.64026 25.9598 3.47726H15.3044V7.6512Z" fill="#FC4343"/>
<path d="M16 31.999C19.7656 31.999 23.2266 30.6975 25.9598 28.5208H6.04025C8.77338 30.6975 12.2344 31.999 16 31.999Z" fill="#FC4343"/>
<path d="M2.34838 24.3468H29.6516C30.4379 23.0638 31.0478 21.6613 31.4488 20.1729H0.551193C0.952256 21.6613 1.56207 23.0638 2.34838 24.3468Z" fill="#FC4343"/>
<path d="M7.4115 2.49765H8.86956L7.51331 3.48296L8.03137 5.07727L6.67519 4.09196L5.319 5.07727L5.7665 3.69996C4.57237 4.69465 3.52575 5.86002 2.66325 7.15852H3.13044L2.26712 7.78571C2.13262 8.01009 2.00362 8.23802 1.88 8.46934L2.29225 9.73815L1.52313 9.17934C1.33194 9.5844 1.15706 9.99859 0.999875 10.4214L1.45406 11.8194H3.13044L1.77419 12.8047L2.29225 14.399L0.936063 13.4137L0.123687 14.004C0.042375 14.6576 0 15.3233 0 15.999H16C16 7.16252 16 6.12077 16 -0.000976562C12.8393 -0.000976562 9.89281 0.915898 7.4115 2.49765ZM8.03137 14.399L6.67519 13.4137L5.319 14.399L5.83706 12.8047L4.48081 11.8194H6.15719L6.67519 10.2251L7.19319 11.8194H8.86956L7.51331 12.8047L8.03137 14.399ZM7.51331 8.14384L8.03137 9.73815L6.67519 8.75284L5.319 9.73815L5.83706 8.14384L4.48081 7.15852H6.15719L6.67519 5.56421L7.19319 7.15852H8.86956L7.51331 8.14384ZM13.7705 14.399L12.4143 13.4137L11.0581 14.399L11.5762 12.8047L10.2199 11.8194H11.8963L12.4143 10.2251L12.9323 11.8194H14.6087L13.2524 12.8047L13.7705 14.399ZM13.2524 8.14384L13.7705 9.73815L12.4143 8.75284L11.0581 9.73815L11.5762 8.14384L10.2199 7.15852H11.8963L12.4143 5.56421L12.9323 7.15852H14.6087L13.2524 8.14384ZM13.2524 3.48296L13.7705 5.07727L12.4143 4.09196L11.0581 5.07727L11.5762 3.48296L10.2199 2.49765H11.8963L12.4143 0.903336L12.9323 2.49765H14.6087L13.2524 3.48296Z" fill="#0052B4"/>
</g>
</g>
<defs>
<clipPath id="clip0_4001_381">
<rect width="32" height="32" rx="16" fill="white"/>
</clipPath>
<clipPath id="clip1_4001_381">
<rect width="32" height="32" fill="white" transform="translate(0 -0.000976562)"/>
</clipPath>
</defs>
</svg>
